<svg width="105" height="56" viewBox="0 0 105 56" fill="none" xmlns="http://www.w3.org/2000/svg">
<rect y="39.4297" width="6.28571" height="6.28571" transform="rotate(-90 0 39.4297)" fill="#2261EF"/>
<rect y="55.7148" width="6.28571" height="6.28571" transform="rotate(-90 0 55.7148)" fill="#2261EF"/>
<rect y="23.1445" width="6.28571" height="6.28571" transform="rotate(-90 0 23.1445)" fill="#2261EF"/>
<rect y="6.85742" width="6.28571" height="6.28571" transform="rotate(-90 0 6.85742)" fill="#2261EF"/>
<rect x="16.2852" y="39.4297" width="6.28571" height="6.28571" transform="rotate(-90 16.2852 39.4297)" fill="#2261EF"/>
<rect x="16.2852" y="55.7148" width="6.28571" height="6.28571" transform="rotate(-90 16.2852 55.7148)" fill="#2261EF"/>
<rect x="16.2852" y="23.1445" width="6.28571" height="6.28571" transform="rotate(-90 16.2852 23.1445)" fill="#2261EF"/>
<rect x="16.2852" y="6.85742" width="6.28571" height="6.28571" transform="rotate(-90 16.2852 6.85742)" fill="#2261EF"/>
<rect x="32.5703" y="39.4297" width="6.28571" height="6.28571" transform="rotate(-90 32.5703 39.4297)" fill="#2261EF"/>
<rect x="32.5703" y="55.7148" width="6.28571" height="6.28571" transform="rotate(-90 32.5703 55.7148)" fill="#2261EF"/>
<rect x="32.5703" y="23.1445" width="6.28571" height="6.28571" transform="rotate(-90 32.5703 23.1445)" fill="#2261EF"/>
<rect x="32.5703" y="6.85742" width="6.28571" height="6.28571" transform="rotate(-90 32.5703 6.85742)" fill="#2261EF"/>
<rect x="48.8555" y="39.4297" width="6.28571" height="6.28571" transform="rotate(-90 48.8555 39.4297)" fill="#2261EF"/>
<rect x="48.8555" y="55.7148" width="6.28571" height="6.28571" transform="rotate(-90 48.8555 55.7148)" fill="#2261EF"/>
<rect x="48.8555" y="23.1445" width="6.28571" height="6.28571" transform="rotate(-90 48.8555 23.1445)" fill="#2261EF"/>
<rect x="48.8555" y="6.85742" width="6.28571" height="6.28571" transform="rotate(-90 48.8555 6.85742)" fill="#2261EF"/>
<rect x="65.1445" y="39.4297" width="6.28571" height="6.28571" transform="rotate(-90 65.1445 39.4297)" fill="#2261EF"/>
<rect x="65.1445" y="55.7148" width="6.28571" height="6.28571" transform="rotate(-90 65.1445 55.7148)" fill="#2261EF"/>
<rect x="65.1445" y="23.1445" width="6.28571" height="6.28571" transform="rotate(-90 65.1445 23.1445)" fill="#2261EF"/>
<rect x="65.1445" y="6.85742" width="6.28571" height="6.28571" transform="rotate(-90 65.1445 6.85742)" fill="#2261EF"/>
<rect x="81.4297" y="39.4297" width="6.28571" height="6.28571" transform="rotate(-90 81.4297 39.4297)" fill="#2261EF"/>
<rect x="98" y="39.4297" width="6.28571" height="6.28571" transform="rotate(-90 98 39.4297)" fill="#2261EF"/>
<rect x="81.4297" y="55.7148" width="6.28571" height="6.28571" transform="rotate(-90 81.4297 55.7148)" fill="#2261EF"/>
<rect x="98" y="55.7148" width="6.28571" height="6.28571" transform="rotate(-90 98 55.7148)" fill="#2261EF"/>
<rect x="81.4297" y="23.1445" width="6.28571" height="6.28571" transform="rotate(-90 81.4297 23.1445)" fill="#2261EF"/>
<rect x="98" y="23.1445" width="6.28571" height="6.28571" transform="rotate(-90 98 23.1445)" fill="#2261EF"/>
<rect x="81.4297" y="6.85742" width="6.28571" height="6.28571" transform="rotate(-90 81.4297 6.85742)" fill="#2261EF"/>
<rect x="98" y="6.85742" width="6.28571" height="6.28571" transform="rotate(-90 98 6.85742)" fill="#2261EF"/>
</svg>
