<svg width="392" height="178" viewBox="0 0 392 178" fill="none" xmlns="http://www.w3.org/2000/svg">
<path opacity="0.45" d="M52.6908 70.3686C25.375 70.3686 1 85.6728 1 85.6728V177.074H391V50.906C391 50.906 378.325 40.1486 358.281 36.665C322.154 30.386 317.112 76.2256 285.375 76.2256C262.063 76.2257 260.453 47.5831 229.371 44.9723C198.288 42.3614 184.267 108.137 134.16 107.395C96.6237 106.84 73.8 70.3686 52.6908 70.3686Z" fill="url(#paint0_linear_371_126)"/>
<path d="M1 86.0258C1 86.0258 24.7646 70.6922 52.126 70.6922C74.8982 70.6922 96.1323 107.507 133.731 108.068C183.922 108.816 197.966 42.4207 229.101 45.0562C260.235 47.6917 261.848 76.6045 285.199 76.6044C316.989 76.6044 322.039 30.3324 358.227 36.6706C378.304 40.1871 391 51.0459 391 51.0459" stroke="#2261EF" stroke-width="2" stroke-linecap="round"/>
<path opacity="0.3" d="M215 18.4921C215 8.27917 223.279 0 233.492 0C243.705 0 251.984 8.27918 251.984 18.4921V177.076H215V18.4921Z" fill="url(#paint1_linear_371_126)"/>
<g filter="url(#filter0_d_371_126)">
<circle cx="233" cy="48.0742" r="12" fill="#2261EF"/>
<circle cx="233" cy="48.0742" r="11" stroke="white" stroke-width="2"/>
</g>
<defs>
<filter id="filter0_d_371_126" x="196" y="16.0742" width="74" height="74" filterUnits="userSpaceOnUse" color-interpolation-filters="sRGB">
<feFlood flood-opacity="0" result="BackgroundImageFix"/>
<feColorMatrix in="SourceAlpha" type="matrix" values="0 0 0 0 0 0 0 0 0 0 0 0 0 0 0 0 0 0 127 0" result="hardAlpha"/>
<feOffset dy="5"/>
<feGaussianBlur stdDeviation="12.5"/>
<feColorMatrix type="matrix" values="0 0 0 0 0 0 0 0 0 0 0 0 0 0 0 0 0 0 0.1 0"/>
<feBlend mode="normal" in2="BackgroundImageFix" result="effect1_dropShadow_371_126"/>
<feBlend mode="normal" in="SourceGraphic" in2="effect1_dropShadow_371_126" result="shape"/>
</filter>
<linearGradient id="paint0_linear_371_126" x1="195.903" y1="3.96531" x2="195.903" y2="179.666" gradientUnits="userSpaceOnUse">
<stop stop-color="#2261EF"/>
<stop offset="1" stop-color="#2261EF" stop-opacity="0"/>
</linearGradient>
<linearGradient id="paint1_linear_371_126" x1="233.492" y1="0" x2="233.492" y2="177.076" gradientUnits="userSpaceOnUse">
<stop stop-color="#2261EF" stop-opacity="0.15"/>
<stop offset="0.0001" stop-color="#2261EF" stop-opacity="0"/>
<stop offset="1" stop-color="#2261EF"/>
</linearGradient>
</defs>
</svg>
