<svg width="638" height="262" viewBox="0 0 638 262" fill="none" xmlns="http://www.w3.org/2000/svg">
<path d="M554.749 43.1902C531.909 43.1902 511.239 52.4301 496.249 67.3901L496.189 67.4501L411.789 148.53L410.689 149.59C404.999 154.79 397.449 157.96 389.149 157.96C380.839 157.96 373.299 154.79 367.609 149.59L366.509 148.53L366.449 148.47C360.729 142.69 357.209 134.77 357.209 126.01C357.209 108.35 371.519 94.0601 389.159 94.0601C405.179 94.0601 418.469 105.87 420.749 121.27L460.149 83.4102C445.679 59.3102 419.299 43.2001 389.149 43.2001C353.969 43.2001 323.909 65.1502 311.919 96.1002L282.099 67.4601L281.979 67.3401C266.999 52.4202 246.339 43.2001 223.539 43.2001C177.809 43.2001 140.739 80.2801 140.739 126.02C140.739 126.16 140.749 126.31 140.749 126.45C140.529 143.12 127.589 156.74 111.179 157.97C110.369 158.05 109.549 158.08 108.709 158.08C107.889 158.08 107.059 158.05 106.249 157.97H51.2992V0.640137H0.449219V208.82H108.689C130.989 208.82 151.219 200 166.109 185.67C180.999 200.01 201.229 208.82 223.529 208.82C253.679 208.82 280.059 192.72 294.539 168.64L255.119 130.76C252.829 146.14 239.559 157.97 223.529 157.97C205.889 157.97 191.579 143.66 191.579 126.02C191.579 108.36 205.889 94.0701 223.529 94.0701C232.549 94.0701 240.699 97.8001 246.519 103.82L331.619 185.58C346.509 199.97 366.789 208.82 389.139 208.82C411.489 208.82 431.779 199.97 446.659 185.58L531.759 103.82C537.579 97.8001 545.729 94.0701 554.749 94.0701C572.389 94.0701 586.699 108.37 586.699 126.02C586.699 143.66 572.389 157.97 554.749 157.97C538.709 157.97 525.439 146.15 523.159 130.76L483.739 168.64V261.91H534.589V206.35C541.049 207.97 547.799 208.82 554.749 208.82C600.479 208.82 637.549 171.75 637.549 126.02C637.559 80.2801 600.489 43.1902 554.749 43.1902Z" fill="white"/>
</svg>
