<svg width="638" height="262" viewBox="0 0 638 262" fill="none" xmlns="http://www.w3.org/2000/svg">
<path d="M554.749 42.9201C531.909 42.9201 511.239 52.1601 496.249 67.1201L496.189 67.1801L411.789 148.26L410.689 149.32C404.999 154.52 397.449 157.69 389.149 157.69C380.839 157.69 373.299 154.52 367.609 149.32L366.509 148.26L366.449 148.2C360.729 142.42 357.209 134.5 357.209 125.74C357.209 108.08 371.519 93.7901 389.159 93.7901C405.179 93.7901 418.469 105.6 420.749 121L460.149 83.1401C445.679 59.0401 419.299 42.9301 389.149 42.9301C353.969 42.9301 323.909 64.8801 311.919 95.8301L282.099 67.1901L281.979 67.0701C266.999 52.1501 246.339 42.9301 223.539 42.9301C177.809 42.9301 140.739 80.0101 140.739 125.75C140.739 125.89 140.749 126.04 140.749 126.18C140.529 142.85 127.589 156.47 111.179 157.7C110.369 157.78 109.549 157.81 108.709 157.81C107.889 157.81 107.059 157.78 106.249 157.7H51.2992V0.370117H0.449219V208.55H108.689C130.989 208.55 151.219 199.73 166.109 185.4C180.999 199.74 201.229 208.55 223.529 208.55C253.679 208.55 280.059 192.45 294.539 168.37L255.119 130.49C252.829 145.87 239.559 157.7 223.529 157.7C205.889 157.7 191.579 143.39 191.579 125.75C191.579 108.09 205.889 93.8001 223.529 93.8001C232.549 93.8001 240.699 97.5301 246.519 103.55L331.619 185.31C346.509 199.7 366.789 208.55 389.139 208.55C411.489 208.55 431.779 199.7 446.659 185.31L531.759 103.55C537.579 97.5301 545.729 93.8001 554.749 93.8001C572.389 93.8001 586.699 108.1 586.699 125.75C586.699 143.39 572.389 157.7 554.749 157.7C538.709 157.7 525.439 145.88 523.159 130.49L483.739 168.37V261.64H534.589V206.08C541.049 207.7 547.799 208.55 554.749 208.55C600.479 208.55 637.549 171.48 637.549 125.75C637.559 80.0101 600.489 42.9201 554.749 42.9201Z" fill="#2261EF"/>
</svg>
