<svg width="638" height="263" viewBox="0 0 638 263" fill="none" xmlns="http://www.w3.org/2000/svg">
<path d="M554.749 43.4602C531.909 43.4602 511.239 52.7002 496.249 67.6602L496.189 67.7202L411.789 148.8L410.689 149.86C404.999 155.06 397.449 158.23 389.149 158.23C380.839 158.23 373.299 155.06 367.609 149.86L366.509 148.8L366.449 148.74C360.729 142.96 357.209 135.04 357.209 126.28C357.209 108.62 371.519 94.3301 389.159 94.3301C405.179 94.3301 418.469 106.14 420.749 121.54L460.149 83.6802C445.679 59.5802 419.299 43.4702 389.149 43.4702C353.969 43.4702 323.909 65.4202 311.919 96.3702L282.099 67.7302L281.979 67.6102C266.999 52.6902 246.339 43.4702 223.539 43.4702C177.809 43.4702 140.739 80.5502 140.739 126.29C140.739 126.43 140.749 126.58 140.749 126.72C140.529 143.39 127.589 157.01 111.179 158.24C110.369 158.32 109.549 158.35 108.709 158.35C107.889 158.35 107.059 158.32 106.249 158.24H51.2992V0.910156H0.449219V209.09H108.689C130.989 209.09 151.219 200.27 166.109 185.94C180.999 200.28 201.229 209.09 223.529 209.09C253.679 209.09 280.059 192.99 294.539 168.91L255.119 131.03C252.829 146.41 239.559 158.24 223.529 158.24C205.889 158.24 191.579 143.93 191.579 126.29C191.579 108.63 205.889 94.3401 223.529 94.3401C232.549 94.3401 240.699 98.0702 246.519 104.09L331.619 185.85C346.509 200.24 366.789 209.09 389.139 209.09C411.489 209.09 431.779 200.24 446.659 185.85L531.759 104.09C537.579 98.0702 545.729 94.3401 554.749 94.3401C572.389 94.3401 586.699 108.64 586.699 126.29C586.699 143.93 572.389 158.24 554.749 158.24C538.709 158.24 525.439 146.42 523.159 131.03L483.739 168.91V262.18H534.589V206.62C541.049 208.24 547.799 209.09 554.749 209.09C600.479 209.09 637.549 172.02 637.549 126.29C637.559 80.5502 600.489 43.4602 554.749 43.4602Z" fill="#0E1B28"/>
</svg>
